<?xml version="1.0" encoding="UTF-8" standalone="no"?><!DOCTYPE svg PUBLIC "-//W3C//DTD SVG 1.1//EN" "http://www.w3.org/Graphics/SVG/1.1/DTD/svg11.dtd"><svg width="100%" height="100%" viewBox="0 0 2168 571" version="1.1" xmlns="http://www.w3.org/2000/svg" xmlns:xlink="http://www.w3.org/1999/xlink" xml:space="preserve" xmlns:serif="http://www.serif.com/" style="fill-rule:evenodd;clip-rule:evenodd;stroke-linejoin:round;stroke-miterlimit:2;"><g><path d="M0.5,373.22c0,-54.405 19.115,-100.824 57.344,-139.257c38.229,-38.433 84.282,-57.65 138.159,-57.65c53.877,0 99.93,19.217 138.159,57.65c38.229,38.433 57.344,84.852 57.344,139.257l-0,157.974c-0,8.985 -3.863,16.596 -11.588,22.835c-7.725,6.24 -16.935,9.359 -27.631,9.359c-10.697,0 -19.808,-3.119 -27.335,-9.359c-7.527,-6.239 -11.291,-13.85 -11.291,-22.835l0,-157.974c0,-36.437 -11.488,-67.507 -34.465,-93.213c-22.977,-25.705 -50.708,-38.557 -83.193,-38.557c-32.485,-0 -60.216,12.852 -83.193,38.557c-22.977,25.706 -34.465,56.776 -34.465,93.213c-0,35.937 11.488,66.758 34.465,92.464c22.977,25.705 50.708,38.557 83.193,38.557c13.469,0 26.741,-2.495 39.814,-7.487c5.546,-2.495 11.29,-3.743 17.232,-3.743c8.716,-0 17.332,2.87 25.85,8.61c8.517,5.74 12.776,13.851 12.776,24.332c-0,13.477 -7.131,23.21 -21.393,29.2c-23.769,9.982 -48.529,14.973 -74.279,14.973c-53.877,0 -99.93,-19.341 -138.159,-58.023c-38.229,-38.683 -57.344,-84.977 -57.344,-138.883Z" style="fill:#ff7620;fill-rule:nonzero;stroke:#ff7620;stroke-width:1px;"/><path d="M784.889,108.182c-0,-8.984 3.763,-16.721 11.29,-23.209c7.527,-6.489 16.639,-9.733 27.335,-9.733c10.696,-0 19.907,3.244 27.632,9.733c7.725,6.488 11.588,14.225 11.588,23.209l-0,265.038c-0,53.906 -19.115,100.2 -57.344,138.883c-38.229,38.682 -84.282,58.023 -138.159,58.023c-53.878,0 -99.931,-19.341 -138.16,-58.023c-38.229,-38.683 -57.343,-84.977 -57.343,-138.883c-0,-54.405 19.114,-100.824 57.343,-139.257c38.229,-38.433 84.282,-57.65 138.16,-57.65c25.354,0 49.717,4.742 73.09,14.226c14.658,5.989 21.987,15.722 21.987,29.199c0,10.481 -4.259,18.592 -12.776,24.332c-8.517,5.74 -17.134,8.61 -25.849,8.61c-5.943,0 -11.687,-1.248 -17.233,-3.743c-12.677,-4.992 -25.75,-7.487 -39.219,-7.487c-32.485,-0 -60.216,12.852 -83.193,38.557c-22.977,25.706 -34.466,56.776 -34.466,93.213c0,35.937 11.489,66.758 34.466,92.464c22.977,25.705 50.708,38.557 83.193,38.557c32.484,0 60.215,-12.852 83.192,-38.557c22.977,-25.706 34.466,-56.527 34.466,-92.464l-0,-265.038Z" style="fill:#ff7620;fill-rule:nonzero;stroke:#ff7620;stroke-width:1px;"/><path d="M954.84,373.22c-0,-54.405 19.114,-100.824 57.343,-139.257c38.229,-38.433 84.283,-57.65 138.16,-57.65c41.2,0 78.637,11.855 112.31,35.563c33.673,23.709 57.443,54.78 71.308,93.213c2.377,6.988 3.566,13.975 3.566,20.963c-0,21.463 -8.914,33.941 -26.741,37.435l-209.17,43.424c-3.17,0.499 -6.339,0.749 -9.508,0.749c-9.112,-0 -17.431,-2.496 -24.958,-7.487c-9.508,-6.489 -14.262,-14.974 -14.262,-25.456c0,-16.97 9.904,-27.452 29.712,-31.445l168.763,-34.44c-22.977,-44.921 -56.651,-67.382 -101.02,-67.382c-32.485,-0 -60.216,12.852 -83.193,38.557c-22.977,25.706 -34.465,56.776 -34.465,93.213c-0,35.937 11.488,66.758 34.465,92.464c22.977,25.705 50.708,38.557 83.193,38.557c41.596,0 74.279,-19.715 98.048,-59.146c7.131,-11.98 18.62,-17.969 34.466,-17.969c6.339,-0 12.281,0.998 17.827,2.995c14.262,5.989 21.392,15.722 21.392,29.199c0,5.49 -1.386,10.481 -4.159,14.974c-17.827,29.947 -41.497,53.406 -71.011,70.377c-29.514,16.97 -61.701,25.455 -96.563,25.455c-53.877,0 -99.931,-19.341 -138.16,-58.023c-38.229,-38.683 -57.343,-84.977 -57.343,-138.883Z" style="fill:#ff7620;fill-rule:nonzero;stroke:#ff7620;stroke-width:1px;"/><path d="M1429.63,107.434c-0,-8.985 3.763,-16.721 11.29,-23.21c7.527,-6.489 16.837,-9.733 27.929,-9.733c10.697,-0 19.808,3.244 27.335,9.733c7.527,6.489 11.291,14.225 11.291,23.21l-0,423.76c-0,8.985 -3.764,16.596 -11.291,22.835c-7.527,6.24 -16.638,9.359 -27.335,9.359c-11.092,0 -20.402,-3.119 -27.929,-9.359c-7.527,-6.239 -11.29,-13.85 -11.29,-22.835l-0,-423.76Z" style="fill:#ff7620;fill-rule:nonzero;stroke:#ff7620;stroke-width:1px;"/><path d="M1784.39,373.22c-0,-54.405 19.114,-100.824 57.343,-139.257c38.229,-38.433 84.282,-57.65 138.16,-57.65c41.2,0 78.637,11.855 112.31,35.563c33.673,23.709 57.442,54.78 71.308,93.213c2.377,6.988 3.565,13.975 3.565,20.963c0,21.463 -8.913,33.941 -26.74,37.435l-209.171,43.424c-3.169,0.499 -6.338,0.749 -9.507,0.749c-9.112,-0 -17.431,-2.496 -24.958,-7.487c-9.508,-6.489 -14.262,-14.974 -14.262,-25.456c0,-16.97 9.904,-27.452 29.712,-31.445l168.762,-34.44c-22.977,-44.921 -56.65,-67.382 -101.019,-67.382c-32.485,-0 -60.216,12.852 -83.193,38.557c-22.977,25.706 -34.466,56.776 -34.466,93.213c0,35.937 11.489,66.758 34.466,92.464c22.977,25.705 50.708,38.557 83.193,38.557c41.596,0 74.279,-19.715 98.048,-59.146c7.131,-11.98 18.619,-17.969 34.466,-17.969c6.338,-0 12.281,0.998 17.827,2.995c14.261,5.989 21.392,15.722 21.392,29.199c0,5.49 -1.386,10.481 -4.159,14.974c-17.827,29.947 -41.498,53.406 -71.011,70.377c-29.514,16.97 -61.702,25.455 -96.563,25.455c-53.878,0 -99.931,-19.341 -138.16,-58.023c-38.229,-38.683 -57.343,-84.977 -57.343,-138.883Z" style="fill:#ff7620;fill-rule:nonzero;stroke:#ff7620;stroke-width:1px;"/><g><path d="M1693.84,224.943c0,-22.366 -18.158,-40.524 -40.524,-40.524c-22.366,-0 -40.524,18.158 -40.524,40.524l0,304.57c0,22.365 18.158,40.524 40.524,40.524c22.366,-0 40.524,-18.159 40.524,-40.524l0,-304.57Z" style="fill:#ff7620;"/><path d="M1796.95,67.972c18.492,-9.654 24.425,-31.711 13.242,-49.226c-11.183,-17.515 -35.275,-23.897 -53.766,-14.243l-123.417,64.432c-18.492,9.654 -24.425,31.712 -13.242,49.227c11.183,17.514 35.274,23.897 53.766,14.243l123.417,-64.433Z" style="fill:#ff7620;"/></g></g></svg>